<?xml version="1.0" encoding="UTF-8"?>
<svg width="24px" height="24px" viewBox="0 0 24 24" version="1.1" xmlns="http://www.w3.org/2000/svg" xmlns:xlink="http://www.w3.org/1999/xlink">
    <!-- Generator: Sketch 53.2 (72643) - https://sketchapp.com -->
    <title>Group</title>
    <desc>Created with Sketch.</desc>
    <g id="GENERAL" stroke="none" stroke-width="1" fill="none" fill-rule="evenodd">
        <g id="Rediseño-HOMEPAGE" transform="translate(-1041.000000, -1656.000000)">
            <g id="Group-40" transform="translate(1041.000000, 1656.000000)">
                <g id="Group">
                    <path d="M11.7029081,23.5891064 C5.23957042,23.5891064 -1.53930985e-12,18.3085051 -1.54010138e-12,11.7945532 C-1.54089291e-12,5.28060133 5.23957042,-9.47743066e-14 11.7029081,-9.59232693e-14 C18.1662457,-9.7072232e-14 23.4058162,5.28060133 23.4058162,11.7945532 C23.3987421,18.3055496 18.1633133,23.5819769 11.7029081,23.5891064 Z" id="Path" fill="#333333" fill-rule="nonzero"></path>
                    <path d="M10.1209136,11.8430638 L10.1209136,17.7710638 C10.1209136,17.8567972 10.1898743,17.9262979 10.2749415,17.9262979 L12.4602117,17.9262979 C12.5452789,17.9262979 12.6142396,17.8567972 12.6142396,17.7710638 L12.6142396,11.7460426 L14.196234,11.7460426 C14.2765307,11.746324 14.3435709,11.6843892 14.3502618,11.6037447 L14.5010808,9.78944681 C14.5056498,9.7464142 14.4918009,9.70345913 14.4630066,9.67135212 C14.4342122,9.6392451 14.3932031,9.62103093 14.3502618,9.6212766 L12.6142396,9.6212766 L12.6142396,8.32765957 C12.6177546,8.02833555 12.8595269,7.78755351 13.156546,7.78757447 L14.3759331,7.78757447 C14.4610004,7.78757447 14.529961,7.71807382 14.529961,7.63234043 L14.529961,5.81804255 C14.5282564,5.73303092 14.4602842,5.66452644 14.3759331,5.66280851 L12.3126017,5.66280851 C11.1021658,5.66280851 10.1209136,6.65174482 10.1209136,7.87165957 L10.1209136,9.6212766 L9.02988301,9.6212766 C8.94553192,9.62299453 8.87755973,9.691499 8.87585515,9.77651064 L8.87585515,11.6069787 C8.87585515,11.6927121 8.94481577,11.7622128 9.02988301,11.7622128 L10.1209136,11.7622128 L10.1209136,11.8430638 Z" id="Path" fill="#FFFFFF"></path>
                </g>
            </g>
        </g>
    </g>
</svg>