<?xml version="1.0" encoding="UTF-8"?>
<svg width="24px" height="24px" viewBox="0 0 24 24" version="1.1" xmlns="http://www.w3.org/2000/svg" xmlns:xlink="http://www.w3.org/1999/xlink">
    <!-- Generator: Sketch 53.2 (72643) - https://sketchapp.com -->
    <title>Group 33</title>
    <desc>Created with Sketch.</desc>
    <g id="GENERAL" stroke="none" stroke-width="1" fill="none" fill-rule="evenodd">
        <g id="Rediseño-HOMEPAGE" transform="translate(-1121.000000, -1656.000000)" fill-rule="nonzero">
            <g id="Group-40" transform="translate(1041.000000, 1656.000000)">
                <g id="Group-33" transform="translate(80.000000, 0.000000)">
                    <path d="M-1.54187774e-12,11.7945532 C-1.54187774e-12,5.28060133 5.23957042,-9.82793895e-14 11.7029081,-9.9475983e-14 C18.1662457,-1.00672577e-13 23.4058162,5.28060133 23.4058162,11.7945532 C23.3987421,18.3055496 18.1633133,23.5819769 11.7029081,23.5891064 C5.23957042,23.5891064 -1.54187774e-12,18.3085051 -1.54187774e-12,11.7945532 Z" id="Path" fill="#333333"></path>
                    <path d="M15.7108412,8.45378723 C15.7108383,8.74839173 15.5345781,9.01392513 15.2643889,9.12636088 C14.9941998,9.23879663 14.6834022,9.17594612 14.4771648,8.96716584 C14.2709275,8.75838556 14.2099504,8.44487724 14.3227149,8.17307577 C14.4354794,7.9012743 14.6997321,7.72481831 14.9920446,7.72612766 C15.1832386,7.72612574 15.3665553,7.80289271 15.5014485,7.93944911 C15.6363416,8.07600552 15.7116948,8.26109791 15.7108412,8.45378723 Z M14.8155543,11.707234 C14.8155543,13.391538 13.4607655,14.7569362 11.7895487,14.7569362 C10.118332,14.7569362 8.76354318,13.391538 8.76354318,11.707234 C8.76354318,10.0229301 10.118332,8.65753191 11.7895487,8.65753191 C13.4600323,8.65931441 14.8137857,10.023669 14.8155543,11.707234 L14.8155543,11.707234 Z M13.7277326,11.707234 C13.7277326,10.6355666 12.8657248,9.76680851 11.8023844,9.76680851 C10.739044,9.76680851 9.87703621,10.6355666 9.87703621,11.707234 C9.87703621,12.7789015 10.739044,13.6476596 11.8023844,13.6476596 C12.8657248,13.6476596 13.7277326,12.7789015 13.7277326,11.707234 L13.7277326,11.707234 Z M17.8993203,9.25582979 C17.8993203,7.20180055 16.2471388,5.53668085 14.2090696,5.53668085 L9.18711978,5.53668085 C7.14905059,5.53668085 5.49686908,7.20180055 5.49686908,9.25582979 L5.49686908,14.3332766 C5.49686908,16.3873058 7.14905059,18.0524255 9.18711978,18.0524255 L14.2219053,18.0524255 C16.2599745,18.0524255 17.912156,16.3873058 17.912156,14.3332766 L17.8993203,9.25582979 Z M16.7120223,14.2750638 C16.7120223,15.6860926 15.5770454,16.8299574 14.1769805,16.8299574 L9.24167131,16.8299574 C7.84160639,16.8299574 6.70662953,15.6860926 6.70662953,14.2750638 L6.70662953,9.31404255 C6.70662953,7.90301377 7.84160639,6.75914894 9.24167131,6.75914894 L14.1673538,6.75914894 C15.5674187,6.75914894 16.7023955,7.90301377 16.7023955,9.31404255 L16.7120223,14.2750638 Z" id="Shape" fill="#FFFFFF"></path>
                </g>
            </g>
        </g>
    </g>
</svg>