<?xml version="1.0" encoding="UTF-8"?>
<svg width="24px" height="24px" viewBox="0 0 24 24" version="1.1" xmlns="http://www.w3.org/2000/svg" xmlns:xlink="http://www.w3.org/1999/xlink">
    <!-- Generator: Sketch 53.2 (72643) - https://sketchapp.com -->
    <title>Group 28</title>
    <desc>Created with Sketch.</desc>
    <g id="GENERAL" stroke="none" stroke-width="1" fill="none" fill-rule="evenodd">
        <g id="Rediseño-HOMEPAGE" transform="translate(-1081.000000, -1656.000000)" fill-rule="nonzero">
            <g id="Group-40" transform="translate(1041.000000, 1656.000000)">
                <g id="Group-28" transform="translate(40.000000, 0.000000)">
                    <path d="M11.7029081,23.5891064 C5.23957042,23.5891064 -1.53477231e-12,18.3085051 -1.53477231e-12,11.7945532 C-1.53477231e-12,5.28060133 5.23957042,-9.65506634e-14 11.7029081,-9.76996262e-14 C18.1662457,-9.88485889e-14 23.4058162,5.28060133 23.4058162,11.7945532 C23.3987421,18.3055496 18.1633133,23.5819769 11.7029081,23.5891064 L11.7029081,23.5891064 Z" id="Path" fill="#333333"></path>
                    <path d="M17.8415599,7.89429787 C17.436663,8.06673441 17.0119139,8.18733429 16.5772479,8.2532766 C16.7794095,8.21770213 17.0682117,7.85225532 17.1869415,7.70348936 C17.3715234,7.47771529 17.5119843,7.21873575 17.6008914,6.94025532 C17.6008914,6.91761702 17.6169359,6.89174468 17.6008914,6.87234043 C17.5806182,6.8624758 17.5569863,6.8624758 17.5367131,6.87234043 C17.0694814,7.12669809 16.5725226,7.32117148 16.0574039,7.45123404 C16.0210859,7.46320136 15.9811761,7.45314578 15.9547187,7.4253617 C15.9152509,7.3770144 15.8723526,7.3316185 15.8263621,7.28953191 C15.6071291,7.10397514 15.3602148,6.95444812 15.0947298,6.84646809 C14.7448153,6.70395516 14.3674242,6.64314394 13.9908635,6.66859574 C13.6253178,6.69274527 13.2688999,6.79411713 12.9447577,6.96612766 C12.6194428,7.1376325 12.3322708,7.37423124 12.1008134,7.66144681 C11.8603488,7.95817462 11.6882729,8.30502136 11.5970139,8.67693617 C11.5179857,9.02959147 11.5092597,9.3945561 11.5713426,9.7506383 C11.5713426,9.81208511 11.5713426,9.81855319 11.52,9.81208511 C9.48233983,9.50485106 7.79124234,8.7707234 6.42103621,7.19574468 C6.36327577,7.12782979 6.33118663,7.12782979 6.27984401,7.19574468 C5.67977716,8.1012766 5.95895265,9.55659574 6.72267409,10.2745532 C6.82215042,10.3683404 6.92483565,10.4653617 7.04356546,10.5494468 C6.70131726,10.5248711 6.36743003,10.4313984 6.06163788,10.2745532 C6.00066852,10.2357447 5.9717883,10.258383 5.96537047,10.3262979 C5.95764257,10.4242426 5.95764257,10.522651 5.96537047,10.6205957 C6.08641137,11.5602561 6.6991809,12.3618595 7.5698273,12.7194894 C7.67267633,12.7650539 7.78033118,12.7986882 7.89071866,12.8197447 C7.57388605,12.8847597 7.24846977,12.8956919 6.92804457,12.8520851 C6.85744847,12.8520851 6.82856825,12.8714894 6.85744847,12.9394043 C7.28102507,14.1068936 8.19877437,14.4529362 8.88227298,14.6502128 C8.97533148,14.6502128 9.06838997,14.6502128 9.15823955,14.6890213 C9.15823955,14.6890213 9.15823955,14.6890213 9.14219499,14.6890213 C8.91436212,15.0382979 8.12496936,15.3002553 7.7591532,15.429617 C7.08598913,15.671081 6.36915182,15.7637312 5.65731476,15.7012766 C5.54179387,15.7012766 5.51933148,15.7012766 5.48724234,15.7012766 C5.4551532,15.7012766 5.48724234,15.7465532 5.51933148,15.7756596 C5.66373259,15.8726809 5.81134262,15.956766 5.95895265,16.037617 C6.41395708,16.2867888 6.89504083,16.4842002 7.39333705,16.6262128 C9.91875209,17.331234 12.7650585,16.8137872 14.6615265,14.9154043 C16.1504624,13.4245106 16.6735153,11.3579574 16.6735153,9.30757447 C16.6735153,9.2267234 16.7665738,9.18144681 16.8243343,9.13940426 C17.2096777,8.84486767 17.5502161,8.49512535 17.8351421,8.1012766 C17.8819703,8.04474318 17.9129865,7.97664297 17.9249916,7.904 L17.9249916,7.904 C17.9153649,7.8587234 17.8896936,7.87165957 17.8415599,7.89429787 Z" id="Path" fill="#FFFFFF"></path>
                </g>
            </g>
        </g>
    </g>
</svg>