<svg width="24px" height="24px" viewBox="0 0 24 24" version="1.1" xmlns="http://www.w3.org/2000/svg" xmlns:xlink="http://www.w3.org/1999/xlink">
  <g id="GENERAL" stroke="none" stroke-width="1" fill="none" fill-rule="evenodd">
    <g id="Rediseño-HOMEPAGE" transform="translate(-1161.000000, -1656.000000)" fill-rule="nonzero">
      <g id="Group-40" transform="translate(1041.000000, 1656.000000)">
        <g id="Group-35" transform="translate(120.000000, 0.000000)">
          <path d="M11.7029081,23.5891064 C5.23957042,23.5891064 -1.53477231e-12,18.3085051 -1.53477231e-12,11.7945532 C-1.53477231e-12,5.28060133 5.23957042,-9.65506634e-14 11.7029081,-9.76996262e-14 C18.1662457,-9.88485889e-14 23.4058162,5.28060133 23.4058162,11.7945532 C23.3987421,18.3055496 18.1633133,23.5819769 11.7029081,23.5891064 L11.7029081,23.5891064 Z" id="Path" fill="#333333"></path>
          <path d="M18.1239443,10.1969362 C18.1239695,8.64038098 16.8766248,7.37604354 15.3321894,7.36714894 L8.08967131,7.36714894 C6.5389665,7.36714894 5.28187187,8.63408784 5.28187187,10.1969362 L5.28187187,13.3921702 C5.28102017,14.1432366 5.57646502,14.8638352 6.1031219,15.3952229 C6.62977878,15.9266106 7.34444028,16.225192 8.08967131,16.2251915 L15.3321894,16.2251915 C16.0774204,16.225192 16.7920819,15.9266106 17.3187388,15.3952229 C17.8453957,14.8638352 18.1408406,14.1432366 18.1399889,13.3921702 L18.1239443,10.1969362 Z M14.1513092,11.8689362 L10.9167242,13.4859574 C10.7915766,13.5538723 10.3519554,13.4633191 10.3519554,13.3177872 L10.3519554,10.0222979 C10.3519554,9.87353191 10.7947855,9.78297872 10.9231421,9.85412766 L14.010117,11.5455319 C14.1384735,11.6199149 14.2828747,11.8074894 14.1513092,11.8689362 Z" id="Shape" fill="#FFFFFF"></path>
        </g>
      </g>
    </g>
  </g>
</svg>
